<?xml version="1.0" encoding="UTF-8" standalone="no"?>
<!-- Created with Inkscape (http://www.inkscape.org/) -->

<svg
   xmlns:dc="http://purl.org/dc/elements/1.1/"
   xmlns:cc="http://creativecommons.org/ns#"
   xmlns:rdf="http://www.w3.org/1999/02/22-rdf-syntax-ns#"
   xmlns:svg="http://www.w3.org/2000/svg"
   xmlns="http://www.w3.org/2000/svg"
   version="1.1"
   width="990"
   height="765"
   id="svg3229">
  <metadata
     id="metadata3235">
    <rdf:RDF>
      <cc:Work
         rdf:about="">
        <dc:format>image/svg+xml</dc:format>
        <dc:type
           rdf:resource="http://purl.org/dc/dcmitype/StillImage" />
        <dc:title></dc:title>
      </cc:Work>
    </rdf:RDF>
  </metadata>
  <defs
     id="defs3233" />
  <g
     transform="matrix(0.43256863,0,0,0.56233588,89.4526,188.91349)"
     id="g3239">
    <path
       d="M 0,383.5 0,2 l 933,0 933,0 0,381.5 0,381.5 -933,0 -933,0 0,-381.5 z"
       id="path3251"
       style="fill:#fefefe" />
    <path
       d="M 88.26455,761.45841 C 80.161001,759.27602 73.148764,755.28352 66.824631,749.25132 41.0898,724.70445 50.372131,684.71771 84.828245,671.69475 90.323186,669.6179 92.136662,669.5418 143,669.25383 c 28.875,-0.16349 53.07159,-0.50184 53.77021,-0.75191 0.88682,-0.31743 -0.39596,-3.77688 -4.25,-11.46163 C 189.48409,650.98645 187,645.35082 187,644.51666 187,643.36776 188.18645,643 191.89301,643 c 3.5393,0 5.06094,-0.43762 5.5,-1.58179 C 197.72686,640.54823 198,610.20387 198,573.98631 l 0,-65.85012 -2.75,-1.90677 C 193.7375,505.1807 178.55,497.20925 161.5,488.51508 144.45,479.82091 109.26397,461.76422 83.308829,448.3891 57.353686,435.01398 28.981703,420.49746 20.259979,416.13018 4.5771994,408.27725 1.2468773,406.0276 2.4419161,404.09398 2.7796689,403.54749 13.505909,397.72649 26.278006,391.15843 39.050103,384.59037 72.9,367.19299 101.5,352.49759 c 28.6,-14.69541 62.4625,-32.0982 75.25,-38.67289 12.7875,-6.57468 23.25,-12.1568 23.25,-12.40471 0,-0.24791 -2.7,-5.8369 -6,-12.41999 -3.3,-6.58309 -6,-12.65117 -6,-13.48462 0,-1.14737 1.18827,-1.51538 4.89301,-1.51538 3.5393,0 5.06094,-0.43762 5.5,-1.58179 0.33385,-0.86998 0.60699,-30.02998 0.60699,-64.8 0,-47.83638 -0.29198,-63.51019 -1.2,-64.41821 -0.90202,-0.90202 -13.88664,-1.2 -52.2899,-1.2 -42.67455,0 -52.059298,-0.2525 -56.975138,-1.53291 C 62.414267,133.66351 46.375412,106.42097 53.985242,81.783205 58.574248,66.925733 68.86301,56.177709 84.5,49.906354 l 6,-2.406354 108,-0.292347 c 76.00396,-0.205736 109.92569,0.03741 114.5,0.82072 17.83423,3.05395 33.51263,17.041021 38.5217,34.366108 1.24451,4.304459 1.59471,8.39834 1.29825,15.176713 -0.36839,8.422946 -0.77229,10.004076 -4.36296,17.079776 -4.67579,9.214 -11.78261,16.64495 -20.21965,21.14185 C 316.75695,141.9118 315.77299,142 258.9899,142 c -38.79214,0 -51.88758,0.29768 -52.7899,1.2 -0.90802,0.90802 -1.2,16.58183 -1.2,64.41821 0,34.77002 0.27314,63.93002 0.60699,64.8 0.43906,1.14417 1.9607,1.58179 5.5,1.58179 3.70656,0 4.89301,0.36776 4.89301,1.51666 0,0.83416 -2.475,6.45166 -5.5,12.48334 -3.025,6.03168 -5.5,11.61032 -5.5,12.39698 0,0.87754 17.87382,10.60575 46.25,25.17257 25.4375,13.05825 68.3657,35.125 95.39601,49.03722 l 49.146,25.29494 56.854,0.29914 L 509.5,400.5 509.81313,396 c 0.17222,-2.475 0.68007,-4.87284 1.12854,-5.32854 1.06276,-1.07987 28.24742,13.21356 27.48306,14.45033 C 537.75751,406.20137 512.5275,419 511.06654,419 c -0.52911,0 -1.09804,-2.3625 -1.26428,-5.25 L 509.5,408.5 495,407.87025 c -7.975,-0.34636 -32.05,-0.74354 -53.5,-0.88262 l -39,-0.25288 -46,23.74401 c -25.3,13.0592 -69.625,35.8949 -98.5,50.746 -28.875,14.8511 -52.83061,27.51348 -53.23469,28.13862 -0.87862,1.3593 -1.03259,129.77654 -0.15832,132.05483 0.43906,1.14417 1.9607,1.58179 5.5,1.58179 3.7087,0 4.89301,0.36746 4.89301,1.51817 0,0.83499 -2.25,6.00182 -5,11.48183 -2.75,5.48001 -5,10.64684 -5,11.48183 0,1.33808 6.16266,1.51817 51.95078,1.51817 34.06369,0 53.77534,0.38049 57.25,1.10508 14.30384,2.98288 27.68716,13.30355 34.39914,26.52721 3.87021,7.62491 3.90008,7.77295 3.90008,19.3276 0,11.52995 -0.0384,11.72158 -3.92409,19.59197 -6.43737,13.03874 -17.7634,22.17819 -32.11746,25.91695 -8.45497,2.20224 -220.013809,2.1926 -228.1939,-0.0104 z M 372.25,711.71091 C 364.57261,707.84195 360,704.96377 360,704.00029 360,702.43688 383.54979,690 386.51018,690 c 1.09287,0 1.48982,1.16635 1.48982,4.37756 0,2.46174 0.59266,4.86941 1.35421,5.50144 0.99781,0.82812 91.46366,1.05772 343.75,0.87245 L 1075.5,700.5 l 0.255,-97.40353 c 0.1831,-69.95086 0.5699,-97.78302 1.3724,-98.75 0.9259,-1.11563 22.7838,-1.34647 127.495,-1.34647 85.3534,0 126.3776,-0.33158 126.3776,-1.02144 0,-1.23615 1.1909,-0.72022 -29,-12.56341 -13.475,-5.28593 -31.925,-12.53368 -41,-16.10611 -9.075,-3.57244 -21.675,-8.5229 -28,-11.00104 -6.325,-2.47813 -23.2,-9.11862 -37.5,-14.75663 -31.9936,-12.61401 -56.0195,-22.06369 -81.5,-32.05492 -20.1468,-7.89982 -23.2858,-9.61061 -21.2922,-11.60425 0.6171,-0.61714 35.1782,-14.53818 76.8023,-30.93563 41.6241,-16.39745 75.9374,-30.07073 76.2517,-30.38506 1.0471,-1.04712 -0.175,-1.34531 -14.2151,-3.46827 -7.6743,-1.16042 -14.3836,-2.54019 -14.9096,-3.06616 -0.6084,-0.60841 0.045,-2.46997 1.7972,-5.11711 2.2802,-3.44565 2.5225,-4.37164 1.4096,-5.38753 -3.2827,-2.99657 -300.4392,-210.87535 -302.03747,-211.29331 -1.69952,-0.44443 -1.80171,2.19537 -2.04761,52.89655 L 915.5,220.5 905,221.17736 c -5.775,0.37254 -18.375,1.16615 -28,1.76356 -22.32564,1.38574 -45.81853,5.04921 -68,10.60391 -19.94015,4.99343 -84.99919,26.36723 -85.00157,27.9255 -8.7e-4,0.56632 2.11588,5.44641 4.70389,10.84464 5.15044,10.74314 4.98241,12.21861 -1.28814,11.3108 -1.6972,-0.24571 -3.55142,-0.14952 -4.12049,0.21374 -1.54769,0.98798 -2.26358,27.94059 -0.77495,29.17605 0.74226,0.61602 39.43733,1.06888 105.0781,1.22977 L 931.5,314.5 l 0,94.5 0,94.5 -195,0 -195,0 -0.5,-49 c -0.275,-26.95 -0.275,-69.475 0,-94.5 l 0.5,-45.5 86.5,-0.5 86.5,-0.5 0,-15 0,-15 -5,-0.5 c -5.88577,-0.58858 -5.88396,-0.5613 -0.71123,-10.68657 2.01928,-3.95261 3.36972,-7.48828 3.00096,-7.85703 -0.36875,-0.36875 -5.53479,0.27357 -11.48009,1.42737 -30.62884,5.94414 -61.9345,5.64529 -100.80964,-0.96236 -13.44077,-2.28454 -37.0704,-7.68169 -39.75,-9.07913 C 558.09754,254.9805 558,247.96549 558,129.98387 L 558,5.0381041 560.25,4.4954809 C 561.4875,4.1970381 641.925,4.0759647 739,4.2264288 L 915.5,4.5 916,54.443601 916.5,104.3872 1070,212.16961 c 84.425,59.28032 154.0189,107.7932 154.653,107.8064 0.6342,0.0132 2.4739,-1.62254 4.0883,-3.63495 1.6528,-2.0603 3.4202,-3.35925 4.0452,-2.97301 1.423,0.87944 14.2135,24.55486 14.2135,26.30934 0,0.72743 0.8256,1.32261 1.8347,1.32261 1.0091,0 17.3216,-6.09882 36.25,-13.55294 18.9284,-7.45412 41.9812,-16.51558 51.2284,-20.13658 l 16.813,-6.58364 41.187,16.1603 c 22.6528,8.88816 41.9197,16.14962 42.8152,16.13658 1.182,-0.0172 2.8267,-3.4909 6,-12.67248 5.739,-16.60498 5.8314,-16.72025 10.0994,-12.60124 1.8521,1.7875 3.8712,3.25 4.4869,3.25 0.6156,0 11.808,-10.35 24.8719,-23 13.0639,-12.65 24.5604,-23 25.5479,-23 0.9874,0 2.2534,0.85606 2.8133,1.90236 0.8864,1.65623 -2.1494,4.97145 -23.4648,25.62433 -13.4656,13.04709 -24.4829,24.10037 -24.4829,24.56285 0,0.46248 1.4169,2.45463 3.1487,4.427 1.8387,2.09417 2.7748,3.94881 2.25,4.45787 -0.4943,0.47946 -6.2265,2.59386 -12.7382,4.69867 -6.5118,2.10481 -11.7622,4.27692 -11.6676,4.82692 0.095,0.55 27.9224,11.92837 61.8395,25.28527 33.9172,13.3569 70.2849,27.6808 80.8172,31.83089 l 19.1496,7.54561 54.518,-0.11873 c 43.4739,-0.0947 54.6866,0.14215 55.3504,1.16911 0.4578,0.70832 1.0574,15.01285 1.3324,31.78785 l 0.5,30.5 4,0.28499 c 6.9834,0.49755 6.9755,0.29727 0.5197,13.17579 -3.3109,6.60466 -6.0197,12.69039 -6.0197,13.52384 0,1.33439 6.2047,1.51538 51.9508,1.51538 34.0637,0 53.7753,0.38049 57.25,1.10508 14.3038,2.98288 27.6871,13.30355 34.3991,26.52721 3.8702,7.62491 3.9001,7.77295 3.9001,19.3276 0,11.52995 -0.038,11.72158 -3.9241,19.59197 -6.4374,13.03874 -17.7634,22.17819 -32.1175,25.91695 -8.7339,2.27491 -219.0428,2.3114 -227.7651,0.0395 -8.4969,-2.21315 -15.388,-6.07554 -21.8687,-12.25701 -25.7351,-24.54719 -16.4549,-64.52568 18.0036,-77.55795 5.5013,-2.08059 7.2949,-2.15478 59.6708,-2.46825 29.6995,-0.17775 54.3694,-0.69348 54.8219,-1.14607 0.4526,-0.45258 -1.9094,-6.2736 -5.249,-12.93559 -3.3395,-6.66199 -6.0719,-12.54611 -6.0719,-13.07582 0,-0.52972 2.3625,-1.09914 5.25,-1.26538 l 5.25,-0.30226 0,-28.5 0,-28.5 -46.6525,-0.25983 -46.6525,-0.25982 -24.3475,9.61001 c -13.3911,5.28551 -30.4225,11.99377 -37.8475,14.90724 -7.425,2.91347 -34.875,13.71455 -61,24.0024 -26.125,10.28785 -53.575,21.09139 -61,24.00787 -30.2931,11.89888 -53.1284,20.9398 -64,25.33883 L 1356.5,508.5 1220,509 1083.5,509.5 1083,607 c -0.275,53.625 -0.8641,98.0625 -1.309,98.75 -0.6447,0.99602 -70.9554,1.25 -346.05002,1.25 -267.18743,0 -345.51228,0.2713 -346.44098,1.2 -0.66,0.66 -1.2,3.135 -1.2,5.5 0,3.45063 -0.34568,4.28856 -1.75,4.2421 -0.9625,-0.0318 -7.2625,-2.83587 -14,-6.23119 z m 314.53066,-448.2275 c 14.38035,-2.01864 27.7774,-5.30496 30.4506,-7.46959 1.49311,-1.20905 2.78591,-1.53981 3.83141,-0.98028 1.06297,0.56889 12.81395,-2.8717 36.00763,-10.54273 18.93633,-6.26296 40.5047,-12.9708 47.9297,-14.90629 27.44204,-7.1534 55.85505,-11.21487 85,-12.15022 9.625,-0.3089 18.5146,-0.76708 19.75467,-1.01819 l 2.25467,-0.45656 L 911.75467,112.72978 911.5,9.5 737,9.5 l -174.5,0 -0.254,120.62423 c -0.20164,95.75636 0.005,120.82766 1,121.61094 1.58229,1.24502 25.60421,6.65426 40.754,9.17696 10.12019,1.68518 23.611,3.28276 38,4.49994 8.06144,0.68193 34.20448,-0.44403 44.78066,-1.92866 z m 866.99454,4.98453 c -16.9833,-2.31566 -49.8098,-9.81052 -54.8997,-12.53455 -1.8186,-0.97329 -1.8755,-4.77763 -1.8755,-125.34613 0,-103.451945 0.2279,-124.531486 1.3563,-125.4680086 0.9951,-0.8258401 42.2106,-1.0582035 154.75,-0.8724447 L 1806.5,4.5 l 0.2545,107.44547 c 0.14,59.09501 -0.085,107.77524 -0.5,108.17828 -0.415,0.40304 -9.5295,1.23223 -20.2545,1.84263 -40.1973,2.2878 -67.0695,8.23924 -106.5,23.58678 -42.0836,16.38021 -53.7559,20.04733 -73,22.93467 -12.2609,1.8396 -39.1616,1.82945 -52.7248,-0.0199 z m 54.5892,-4.97322 c 18.2881,-3.19136 26.23,-5.76391 73.7039,-23.87438 37.9895,-14.49232 67.321,-20.85633 102.6899,-22.28044 10.7011,-0.43087 16.5987,-1.06506 17.2547,-1.85543 0.6515,-0.785 0.9084,-36.6566 0.7418,-103.59264 L 1802.5,9.5 1652.29,9.2467563 1502.08,8.9935125 1501.79,76.246756 C 1501.6305,113.23604 1501.725,168.025 1502,198 l 0.5,54.5 11.5,3.12243 c 14.2855,3.87873 37.6348,8.19055 50.6529,9.35385 12.2587,1.09545 32.9658,0.3936 43.7115,-1.48156 z"
       id="path3249"
       style="fill:#979da2" />
    <path
       d="M 89.26455,759.47133 C 77.130352,756.17349 66.89221,748.52271 60.473432,737.95627 57.136815,732.4636 54.686869,725.07041 56.593902,726.24902 57.11371,726.57028 57.5,722.26676 57.5,716.15451 c 0,-9.48202 0.296674,-11.28757 2.695887,-16.40715 3.283717,-7.007 11.553216,-15.97764 18.304113,-19.85607 2.75,-1.57989 4.40126,-2.87674 3.669468,-2.88191 -2.672885,-0.0188 -12.492876,7.46685 -17.173562,13.09126 -6.597945,7.92824 -9.205755,15.17472 -9.320473,25.89936 -0.07657,7.15801 -0.24222,7.97511 -1.049235,5.17539 -1.440149,-4.9962 0.662107,-16.28531 4.479199,-24.0533 6.26971,-12.75918 19.172768,-22.45278 33.328262,-25.0383 C 96.186537,671.39832 116.87148,671 148.71504,671 c 42.03553,0 50.4357,-0.22925 50.88058,-1.38858 0.29306,-0.76372 -1.97106,-6.38122 -5.03139,-12.48334 C 191.5039,651.02596 189,645.80082 189,645.51666 c 0,-0.28416 1.6875,-0.52355 3.75,-0.53197 7.28623,-0.0298 6.75,5.57155 6.75,-70.50893 l 0,-68.59753 -10,-5.26846 C 179.04037,495.09916 83.201322,445.82512 33.75,420.53353 17.9375,412.44632 5,405.52569 5,405.15435 c 0,-0.37134 12.707148,-7.19548 28.238106,-15.16475 15.530958,-7.96928 39.043458,-20.02935 52.25,-26.80015 C 98.694648,356.41866 118.95,346.01427 130.5,340.06859 c 11.55,-5.94567 31.8,-16.33643 45,-23.09057 13.2,-6.75415 24.74283,-12.91657 25.65072,-13.69429 1.02589,-0.87878 1.88368,-1.03709 2.26615,-0.41824 0.33849,0.54768 13.99566,7.8373 30.34928,16.19916 16.35362,8.36185 36.48385,18.68996 44.73385,22.95135 8.25,4.26139 31.875,16.40291 52.5,26.98115 20.625,10.57824 44.41687,22.82829 52.87081,27.22233 13.94803,7.24965 15.58936,7.8722 17.73177,6.72562 1.86547,-0.99837 13.47507,-1.11563 55.3196,-0.55873 52.12457,0.69372 52.97534,0.67364 54.01823,-1.27503 0.58278,-1.08892 1.05959,-3.35944 1.05959,-5.0456 0,-1.68616 0.3375,-3.05848 0.75,-3.04961 0.4125,0.009 5.90129,2.66089 12.19732,5.89338 l 11.44731,5.87725 -12.22115,6.12628 c -13.10183,6.56774 -12.89066,6.57426 -13.38849,-0.41304 l -0.28499,-4 -20,-0.61455 c -11,-0.33801 -35.43043,-0.67551 -54.28984,-0.75 C 403.74598,405.00721 401.7116,405.10648 398,407 c -4.01321,2.04739 -6.90275,2.75621 -3.75,0.9199 4.37229,-2.54662 2.02049,-4.27959 -23.50208,-17.31796 C 356.86156,383.50801 340.1,374.91093 333.5,371.49731 319.49621,364.25435 275.9215,341.89964 251.5,329.42966 242.15,324.6554 227.65356,317.20563 219.2857,312.8746 210.91783,308.54357 203.45354,305 202.69838,305 c -1.32464,0 -12.86135,5.74237 -51.15538,25.46247 -9.92365,5.11033 -27.493,14.12518 -39.043,20.03299 -11.55,5.90781 -27.75,14.23268 -36,18.49971 -30.274079,15.65823 -59.11049,30.41956 -63.25,32.3776 -2.494087,1.17973 -4.25,2.6984 -4.25,3.67578 0,1.13611 4.529295,3.97499 14.25,8.93165 15.101442,7.70033 41.565568,21.26711 71.25,36.52615 9.9,5.08901 26.55,13.638 37,18.99776 47.56311,24.39489 62.24315,31.93904 65.48519,33.65318 4.25259,2.24845 6.60407,2.30682 10.51481,0.26101 1.65,-0.86316 15.375,-7.89642 30.5,-15.62947 15.125,-7.73304 33.8,-17.31619 41.5,-21.29588 7.7,-3.97969 24.8,-12.75159 38,-19.4931 21.87566,-11.17236 41.63119,-21.3457 63,-32.44259 8.80918,-4.57464 12.57185,-6.20156 11,-4.75625 -0.55,0.50572 -10.45,5.76791 -22,11.69373 -31.29897,16.05821 -55.98083,28.73019 -75,38.50594 -9.35,4.80585 -26,13.35351 -37,18.9948 -11,5.64129 -27.73738,14.26644 -37.19417,19.167 l -17.19417,8.91011 -0.60454,4.2137 c -0.3325,2.31754 -0.47013,32.91776 -0.30583,68.00048 0.33106,70.69463 -0.20822,65.66828 7.04871,65.69792 2.0625,0.008 3.75,0.24781 3.75,0.53197 0,0.28416 -2.5039,5.5093 -5.56423,11.61142 -3.06033,6.10212 -5.32445,11.71962 -5.03139,12.48334 0.44516,1.16007 9.06521,1.38858 52.38058,1.38858 33.21641,0 53.97126,0.39256 57.75717,1.09242 14.21467,2.62773 27.20579,12.09 33.42722,24.3472 1.78743,3.52151 3.04905,7.00071 2.80362,7.73156 -0.24544,0.73085 -1.02061,-0.47118 -1.7226,-2.67118 -1.90765,-5.97847 -7.90284,-14.22917 -13.01791,-17.91549 -5.37363,-3.87266 -8.84165,-5.7357 -4.53246,-2.43486 5.4661,4.18704 12.21711,12.11812 15.12849,17.77295 2.68059,5.20658 2.87151,6.35529 2.87151,17.2774 0,7.80039 0.3333,11.36651 1,10.69942 0.55,-0.55032 0.98981,-5.49008 0.97735,-10.97726 -0.0125,-5.48717 0.29342,-9.17691 0.67972,-8.19942 1.18173,2.99026 0.89468,13.49399 -0.51316,18.77726 -1.33938,5.02633 -4.26394,11.5 -5.19527,11.5 -0.275,0 0.18656,-1.32765 1.02568,-2.95034 2.94119,-5.68763 1.43138,-5.49083 -1.85754,0.24213 -1.82746,3.18548 -4.62204,7.23548 -6.21016,9 -1.58812,1.76451 -0.67808,1.18321 2.0223,-1.29179 l 4.90979,-4.5 -2.06055,3.5 c -2.66639,4.52903 -13.98984,13.17719 -21.16253,16.16264 L 315.5,760.5 205,760.69712 c -92.8911,0.1657 -111.334303,-0.0296 -115.73545,-1.22579 z M 310,759.0044 c 0.96878,-0.62323 -37.10216,-0.96435 -107.5,-0.96323 -70.26485,0.001 -108.466948,0.34405 -107.5,0.96497 2.04226,1.31145 212.96137,1.30974 215,-0.002 z M 81.18426,753.8862 c -7.596576,-3.68382 -16.161015,-12.04598 -20.308672,-19.82901 -2.029769,-3.80883 -2.775372,-4.65495 -2.369919,-2.68939 0.885276,4.29165 8.199627,14.07343 13.328809,17.82517 5.658518,4.13892 12.19832,7.71054 14.165522,7.73629 0.825,0.0108 -1.342083,-1.35858 -4.81574,-3.04306 z m 245.6618,-0.30819 c 2.62876,-1.3321 5.4263,-3.2446 6.21675,-4.25 1.29247,-1.64393 1.27344,-1.70016 -0.1889,-0.5584 -0.89435,0.69829 -4.04435,2.60264 -7,4.23189 -6.46486,3.56364 -5.75426,3.98504 0.97215,0.57651 z M 321,676 c -0.825,-0.53316 -2.175,-0.94464 -3,-0.9144 -0.98906,0.0362 -0.81874,0.34772 0.5,0.9144 2.74909,1.18132 4.32797,1.18132 2.5,0 z m -13.5,-3 c -1.1,-0.47269 -48.125,-0.85943 -104.5,-0.85943 -56.375,0 -103.4,0.38674 -104.5,0.85943 -1.131865,0.48638 44.22819,0.85943 104.5,0.85943 60.27181,0 105.63186,-0.37305 104.5,-0.85943 z m 66.25,37.43962 C 367.8375,707.43808 363,704.54002 363,703.99949 363,703.21649 383.89467,692 385.35329,692 c 0.21263,0 0.61736,2.04723 0.89939,4.5494 0.28203,2.50217 0.82804,4.86467 1.21337,5.25 1.13268,1.13271 684.98185,1.361 687.95755,0.22966 l 2.5764,-0.97956 0,-98.02475 0,-98.02475 126.75,-0.0997 c 69.7125,-0.0548 127.8416,-0.40474 129.1759,-0.77758 1.3342,-0.37285 2.6028,-1.20894 2.8192,-1.85798 0.4652,-1.39575 1.8535,-0.79883 -41.2451,-17.73377 -18.7,-7.34787 -42.775,-16.81598 -53.5,-21.04024 -10.725,-4.22426 -24.675,-9.70854 -31,-12.1873 -6.325,-2.47876 -21.175,-8.32631 -33,-12.99456 -36.9248,-14.57708 -72.2796,-28.44065 -77.75,-30.48786 -2.8875,-1.0806 -5.241,-2.2699 -5.23,-2.64288 0.017,-0.59094 36.1099,-15.09469 41.48,-16.66875 4.6537,-1.36406 -7.0757,3.81023 -20.5,9.04331 -7.975,3.10883 -14.9084,6.03719 -15.4076,6.50747 -1.3691,1.28979 0.7754,3.31683 5.0943,4.81539 2.0973,0.7277 11.2383,4.24505 20.3133,7.81633 9.075,3.57128 23.925,9.40564 33,12.96524 9.075,3.5596 18.6702,7.36953 21.3227,8.46652 2.6525,1.09698 5.3225,1.82795 5.9332,1.62437 1.0653,-0.3551 -12.0519,-5.72712 -54.2559,-22.21989 -25.6703,-10.03164 -28.3882,-11.19281 -28.7519,-12.28371 -0.2975,-0.89259 9.2352,-4.87421 49.2519,-20.57165 26.1107,-10.2425 49.5881,-19.4908 71.5,-28.16558 10.175,-4.02821 22.775,-8.98145 28,-11.0072 5.225,-2.02575 17.825,-6.97898 28,-11.00716 10.175,-4.02819 27.275,-10.7653 38,-14.97135 10.725,-4.20605 22.9556,-9.0133 27.1791,-10.68278 l 7.6792,-3.03543 5.3208,1.99318 c 2.9265,1.09625 12.7459,4.92507 21.8209,8.50848 31.3189,12.36681 54.531,21.50328 64,25.19096 5.225,2.03486 20.075,7.88663 33,13.00395 12.925,5.11731 28.675,11.33061 35,13.80732 76.1038,29.80037 91.0954,35.90675 90.7436,36.96191 -0.3302,0.99086 -7.1091,3.84893 -36.7436,15.49165 -13.9256,5.47105 -45.403,17.8696 -75.5,29.73844 -6.05,2.38584 -18.65,7.34015 -28,11.00957 -9.35,3.66943 -26.675,10.48656 -38.5,15.14919 -11.825,4.66262 -25.1,9.86883 -29.5,11.56935 -4.4,1.70053 -15.1463,5.94506 -23.8806,9.43229 -8.7343,3.48724 -16.7066,6.34043 -17.7161,6.34043 -1.0095,0 -3.3132,-0.62478 -5.1194,-1.3884 -10.5383,-4.45549 -15.0668,-6.27691 -32.2839,-12.98511 -10.45,-4.07157 -28.215,-11.05318 -39.4777,-15.51467 -11.2628,-4.4615 -20.9153,-8.11182 -21.45,-8.11182 -2.3712,0 1.5863,2.08242 10.4277,5.48702 10.5809,4.07443 22.3916,8.71982 50.5,19.86264 26.7175,10.59146 35.2627,13.65034 38.1328,13.65034 1.3731,0 4.6049,-0.86683 7.1818,-1.92629 14.5511,-5.98236 28.4252,-11.16722 28.8216,-10.77085 0.2503,0.25032 -3.9529,2.15166 -9.3405,4.22521 -5.3877,2.07355 -13.5648,5.278 -18.1714,7.12101 l -8.3757,3.35092 -133.8092,0 c -84.3459,0 -134.7556,0.35981 -136.3694,0.97338 l -2.5601,0.97337 -0.255,97.77663 L 1080.5,704.5 734.33331,705 c -190.39168,0.275 -346.48195,0.81527 -346.86727,1.2006 -0.38532,0.38533 -0.93133,2.74783 -1.21336,5.25 -0.28203,2.50217 -0.79176,4.52622 -1.13273,4.49788 -0.34097,-0.0283 -5.45745,-2.50732 -11.36995,-5.50886 z M 1252,465.06418 c -0.825,-0.48125 -13.65,-5.65311 -28.5,-11.49303 -14.85,-5.83991 -28.4778,-11.28247 -30.2839,-12.09458 -1.8062,-0.81212 -3.8087,-1.47657 -4.45,-1.47657 -2.5626,0 1.1345,1.98318 10.2339,5.48971 13.9258,5.36639 41.8039,16.37222 47,18.55484 4.7804,2.00801 8.8922,2.70677 6,1.01963 z m 348.2645,117.40715 c -12.1341,-3.29784 -22.3723,-10.94862 -28.7911,-21.51506 -3.3366,-5.49267 -5.7865,-12.88586 -3.8795,-11.70725 0.5198,0.32126 0.9061,-3.98226 0.9061,-10.09451 0,-9.48202 0.2967,-11.28757 2.6959,-16.40715 3.2837,-7.007 11.5532,-15.97764 18.3041,-19.85607 2.75,-1.57989 4.4013,-2.87674 3.6695,-2.88191 -2.6729,-0.0189 -12.4929,7.46685 -17.1736,13.09126 -6.5979,7.92824 -9.2057,15.17472 -9.3205,25.89936 -0.077,7.15801 -0.2422,7.97511 -1.0492,5.17539 -1.4402,-4.9962 0.6621,-16.28531 4.4792,-24.0533 6.2766,-12.77316 19.172,-22.45252 33.3671,-25.04547 8.3656,-1.52812 211.7619,-1.51996 220.0319,0.009 14.2531,2.63482 27.2368,12.08377 33.465,24.35417 1.7874,3.52151 3.049,7.00071 2.8036,7.73156 -0.2455,0.73085 -1.0206,-0.47118 -1.7226,-2.67118 -1.9077,-5.97847 -7.9029,-14.22917 -13.0179,-17.91549 -5.3737,-3.87266 -8.8417,-5.7357 -4.5325,-2.43486 5.4661,4.18704 12.2171,12.11812 15.1285,17.77295 2.6806,5.20658 2.8715,6.35529 2.8715,17.2774 0,7.80039 0.3333,11.36651 1,10.69942 0.55,-0.55032 0.9898,-5.49008 0.9774,-10.97726 -0.013,-5.48717 0.2934,-9.17691 0.6797,-8.19942 1.1817,2.99026 0.8946,13.49399 -0.5132,18.77726 -1.3394,5.02633 -4.2639,11.5 -5.1953,11.5 -0.275,0 0.1866,-1.32765 1.0257,-2.95034 2.9412,-5.68763 1.4314,-5.49083 -1.8575,0.24213 -1.8275,3.18548 -4.6221,7.23548 -6.2102,9 -1.5881,1.76451 -0.6781,1.18321 2.0223,-1.29179 l 4.9098,-4.5 -2.0605,3.5 c -2.6664,4.52903 -13.9899,13.17719 -21.1626,16.16264 L 1826.5,583.5 1716,583.69712 c -92.8911,0.1657 -111.3343,-0.0296 -115.7355,-1.22579 z M 1821,582.0044 c 0.9688,-0.62323 -37.1022,-0.96435 -107.5,-0.96323 -70.2649,0.001 -108.4669,0.34405 -107.5,0.96497 2.0423,1.31145 212.9614,1.30974 215,-0.002 z m -228.8157,-5.1182 c -7.5966,-3.68382 -16.1611,-12.04598 -20.3087,-19.82901 -2.0298,-3.80883 -2.7754,-4.65495 -2.3699,-2.68939 0.8852,4.29165 8.1996,14.07343 13.3288,17.82517 5.6585,4.13892 12.1983,7.71054 14.1655,7.73629 0.825,0.0108 -1.3421,-1.35858 -4.8157,-3.04306 z m 245.6618,-0.30819 c 2.6287,-1.3321 5.4263,-3.2446 6.2167,-4.25 1.2925,-1.64393 1.2735,-1.70016 -0.1889,-0.5584 -0.8943,0.69829 -4.0443,2.60264 -7,4.23189 -6.4648,3.56364 -5.7543,3.98504 0.9722,0.57651 z M 1832,499 c -0.825,-0.53316 -2.175,-0.94464 -3,-0.9144 -0.9891,0.0362 -0.8187,0.34772 0.5,0.9144 2.7491,1.18132 4.328,1.18132 2.5,0 z m -13.5,-3 c -1.1,-0.47269 -48.125,-0.85943 -104.5,-0.85943 -56.375,0 -103.4,0.38674 -104.5,0.85943 -1.1319,0.48638 44.2282,0.85943 104.5,0.85943 60.2718,0 105.6319,-0.37305 104.5,-0.85943 z M 184,494.91443 C 174.375,489.94641 154.575,479.76928 140,472.29858 125.425,464.82789 108.1,455.91952 101.5,452.5022 94.9,449.08489 76.225,439.49566 60,431.1928 14.088764,407.69853 11.5,406.30371 11.5,405.06105 c 0,-0.64211 9.9,-6.23066 22,-12.41901 57.532311,-29.42397 78.78671,-40.32734 88,-45.14344 5.5,-2.87504 23.5,-12.10642 40,-20.51418 16.5,-8.40775 30.45,-15.61146 31,-16.00823 0.55,-0.39677 3.14736,-1.65779 5.77192,-2.80226 l 4.77192,-2.08086 12.22808,6.30543 c 6.72544,3.46798 23.02808,11.83032 36.22808,18.58298 13.2,6.75265 31.65,16.21395 41,21.02511 16.45866,8.469 23.82937,12.25695 76.75,39.44336 13.6125,6.99301 24.75,13.09734 24.75,13.56517 0,0.92814 -10.73234,6.71335 -44.5,23.98749 -28.39417,14.52529 -57.12227,29.2679 -76,39.00147 -42.99991,22.17127 -70.32754,35.9931 -71.11658,35.96952 C 201.89754,503.95908 193.625,499.88245 184,494.91443 z M 543,409 l 0,-93 85.42857,0 c 76.32901,0 85.59596,-0.16738 87,-1.57143 C 716.71646,313.14068 717,310.16987 717,297.96376 717,281.45839 716.81262,281 710.06574,281 708.37958,281 707,280.76501 707,280.4778 c 0,-0.28721 1.82053,-4.14306 4.04563,-8.56855 2.2251,-4.4255 3.80739,-8.80301 3.51622,-9.7278 -0.35805,-1.13719 0.44151,-2.23578 2.47016,-3.394 3.70708,-2.1165 5.82048,-1.46663 5.23254,1.609 -0.27198,1.42274 1.31426,5.78712 4.16987,11.47298 4.97557,9.90695 4.98575,9.85253 -1.93442,10.34558 l -4,0.28499 -0.27628,15.92474 c -0.20941,12.07013 0.0326,16.12079 1,16.73469 0.70195,0.44547 47.96378,0.81684 105.02628,0.82526 L 930,316 l 0,93 0,93 -193.5,0 -193.5,0 0,-93 z m 46.5,0 0,-91.5 -21.37314,-0.27025 c -14.92258,-0.18868 -21.78869,0.0746 -22.75,0.87245 C 544.22633,319.05705 544,334.07413 544,409.45578 c 0,49.61599 0.30839,90.51927 0.6853,90.89619 0.37692,0.37692 10.61442,0.56442 22.75,0.41667 L 589.5,500.5 l 0,-91.5 z m -43.5,0 0,-90 21.5,0 21.5,0 0,90 0,90 -21.5,0 -21.5,0 0,-90 z m 333.94849,90.09624 c 1.60814,-3.00483 1.40962,-178.22752 -0.2044,-180.42049 C 878.58453,317.10026 868.81828,317.00289 736,317.24271 L 593.5,317.5 593.24199,408 c -0.14191,49.775 -0.0435,91.0625 0.21861,91.75 0.37822,0.99192 29.89674,1.25 142.97283,1.25 139.07152,0 142.52069,-0.0457 143.51506,-1.90376 z M 594,409 l 0,-90 142.5,0 142.5,0 0,90 0,90 -142.5,0 -142.5,0 0,-90 z m 334.5,0 0,-91.5 -22.5,0 -22.5,0 -0.25801,90.5 c -0.14191,49.775 -0.0402,91.07114 0.22598,91.7692 0.3754,0.98444 5.48137,1.20879 22.75801,1 L 928.5,500.5 l 0,-91.5 z m -44.5,0 0,-90 21.5,0 21.5,0 0,90 0,90 -21.5,0 -21.5,0 0,-90 z m 510.5,81.06958 c 2.2,-1.10399 7.15,-3.20095 11,-4.65992 3.85,-1.45896 8.35,-3.2415 10,-3.96118 7.6201,-3.3237 16.6838,-6.59806 17.1031,-6.17873 0.2546,0.25467 -8.2144,3.87993 -18.82,8.05615 -21.0751,8.29875 -25.3872,9.80678 -19.2831,6.74368 z m 312.6169,-11.8363 -6.1323,-12.23328 3.5734,0 c 1.9654,0 4.4439,-0.46583 5.5077,-1.03518 1.8441,-0.98691 1.9343,-2.38708 1.9343,-30.02475 l 0,-28.98957 -2.5651,-0.97525 c -1.5324,-0.58262 -20.7561,-0.96676 -47.75,-0.95416 l -45.1849,0.0211 -6.9451,2.45048 c -3.8198,1.34776 -7.1162,2.27936 -7.3254,2.07021 -0.2091,-0.20914 0.5537,-0.67667 1.6951,-1.03895 2.3222,-0.73703 2.6825,-2.51681 0.8754,-4.32392 -1.468,-1.46805 -0.7564,-1.51413 2.7565,-0.1785 1.8356,0.69786 3.0802,0.69494 3.9287,-0.009 0.826,-0.6855 18.2861,-0.94391 52.1284,-0.7715 L 1714.5,402.5 l 0.2647,30.95009 c 0.1988,23.23212 0.5728,31.14575 1.5,31.73469 0.6794,0.43153 2.9228,0.79149 4.9853,0.79991 2.0625,0.008 3.7268,0.35281 3.6984,0.76531 -0.028,0.4125 -2.6723,5.91748 -5.8754,12.23328 l -5.8237,11.48329 -6.1324,-12.23329 z M 1434,474.74923 c 1.0579,-1.20479 44.0301,-18.05243 44.5977,-17.4849 0.2247,0.22474 -8.9303,4.06611 -20.3446,8.53638 -23.5117,9.20814 -24.9456,9.7372 -24.2531,8.94852 z m 49,-19.67296 c 1.925,-1.09584 4.175,-1.99328 5,-1.99432 1.8275,-0.002 -2.5252,2.41182 -6,3.32777 -1.8793,0.49537 -1.631,0.16428 1,-1.33345 z m 8,-2.87358 c 3.1043,-1.96258 53.1022,-21.43384 53.6446,-20.89144 0.3129,0.31292 -48.2595,19.70772 -53.1446,21.22044 -1.5244,0.47204 -1.6433,0.39381 -0.5,-0.329 z m 58.5,-23.12041 c 6.4366,-3.20951 37.5923,-15.32332 38.1013,-14.81435 0.2556,0.25567 -8.2126,3.88175 -18.8182,8.05797 -21.0045,8.27094 -25.4308,9.82183 -19.2831,6.75638 z m 43,-17.06488 c 2.2,-1.08072 4.675,-1.95914 5.5,-1.95203 1.6836,0.0145 -3.3143,2.34882 -7.0646,3.29957 -1.3395,0.33958 -0.6354,-0.26681 1.5646,-1.34754 z m 3.6795,-12.16569 c -2.9263,-1.12424 -5.1223,-2.24228 -4.88,-2.48454 0.4159,-0.41586 10.7261,3.32634 11.6172,4.21655 0.8771,0.87632 -1.6169,0.23515 -6.7372,-1.73201 z M 1577,392.39071 c -15.5495,-6.09795 -19.0891,-7.6349 -18.6332,-8.0908 0.3697,-0.36971 30.6847,11.4396 31.5499,12.29037 1.0788,1.06088 -2.3236,-0.0453 -12.9167,-4.19957 z m -437.8162,-4.90783 c 0.8917,-0.89167 21.0758,-8.55665 21.4766,-8.15581 0.2096,0.20955 -4.303,2.24668 -10.028,4.52696 -9.8689,3.93088 -12.6239,4.8041 -11.4486,3.62885 z m 406.0193,-7.66609 c -5.6634,-2.23093 -10.1071,-4.24615 -9.875,-4.47827 0.3957,-0.39566 20.6851,7.35793 21.5886,8.25004 1.0331,1.02021 -2.1548,-0.006 -11.7136,-3.77177 z M 1164,377.5846 c 1.375,-0.73443 3.625,-1.63187 5,-1.99432 1.8793,-0.49537 1.631,-0.16428 -1,1.33345 -1.925,1.09584 -4.175,1.99328 -5,1.99432 -0.8323,0.001 -0.3871,-0.59254 1,-1.33345 z m 8.0833,-2.99604 c 0.8514,-0.84064 21.1811,-8.65754 21.5518,-8.28679 0.4187,0.41868 -3.3891,2.09365 -13.8956,6.11235 -6.4696,2.47461 -8.5619,3.06885 -7.6562,2.17444 z M 1528,372.92373 c -2.631,-1.49773 -2.8793,-1.82882 -1,-1.33345 3.4748,0.91595 7.8275,3.33005 6,3.32777 -0.825,-10e-4 -3.075,-0.89848 -5,-1.99432 z m -15.7969,-6.10694 c -5.6634,-2.23093 -10.1071,-4.24615 -9.875,-4.47827 0.3957,-0.39566 20.6851,7.35793 21.5886,8.25004 1.0331,1.02021 -2.1548,-0.006 -11.7136,-3.77177 z M 1197,364.5846 c 1.375,-0.73443 3.625,-1.63187 5,-1.99432 1.8793,-0.49537 1.631,-0.16428 -1,1.33345 -1.925,1.09584 -4.175,1.99328 -5,1.99432 -0.8323,0.001 -0.3871,-0.59254 1,-1.33345 z m 8.0833,-2.99604 c 0.8514,-0.84064 21.1811,-8.65754 21.5518,-8.28679 0.4187,0.41868 -3.3891,2.09365 -13.8956,6.11235 -6.4696,2.47461 -8.5619,3.06885 -7.6562,2.17444 z M 1495,359.92373 c -2.631,-1.49773 -2.8793,-1.82882 -1,-1.33345 3.4748,0.91595 7.8275,3.33005 6,3.32777 -0.825,-10e-4 -3.075,-0.89848 -5,-1.99432 z m -12,-4.52058 c -10.4877,-4.09918 -14.0454,-5.69112 -13.6351,-6.10138 0.3707,-0.37075 20.7004,7.44615 21.5518,8.28679 0.9797,0.96741 -1.8457,0.18747 -7.9167,-2.18541 z m -253,-3.81855 c 1.375,-0.73443 3.625,-1.63187 5,-1.99432 1.8793,-0.49537 1.631,-0.16428 -1,1.33345 -1.925,1.09584 -4.175,1.99328 -5,1.99432 -0.8323,0.001 -0.3871,-0.59254 1,-1.33345 z m 8.0833,-2.99604 c 0.8514,-0.84064 21.1811,-8.65754 21.5518,-8.28679 0.3834,0.38337 -1.2404,1.10877 -13.6351,6.09113 -5.967,2.39859 -8.9639,3.22978 -7.9167,2.19566 z m 217.6209,-3.82392 c -5.3877,-2.20347 -9.6131,-4.18907 -9.3897,-4.41244 0.4179,-0.41793 20.5755,7.20449 21.5017,8.13068 1.32,1.31997 -3.1433,-0.0502 -12.112,-3.71824 z m -194.6095,-5.19271 c 0.8668,-0.86673 54.2029,-21.60766 54.5843,-21.22629 0.2171,0.21716 -6.7093,3.19029 -15.3921,6.60698 -8.6828,3.41669 -20.7755,8.20008 -26.8727,10.62977 -10.1834,4.05799 -13.4438,5.11385 -12.3195,3.98954 z M 1439,338 c -2.1451,-1.17441 -2.8319,-1.93239 -1.7742,-1.95808 0.9492,-0.0231 3.1992,0.8564 5,1.95434 4.178,2.54732 1.426,2.5505 -3.2258,0.004 z m -209.5,-1.04374 c -6.05,-1.00472 -11.1189,-1.8559 -11.2642,-1.89151 -0.1453,-0.0356 0.8802,-1.79405 2.2789,-3.90763 1.3987,-2.11358 2.2853,-4.47608 1.9701,-5.25 -0.4215,-1.0352 -191.2305,-135.46777 -300.22217,-211.51852 -4.12101,-2.8755 -5.53404,-3.40824 -6.62918,-2.49935 -1.11843,0.92821 -1.49026,0.64014 -1.89299,-1.4666 -0.27564,-1.44194 -0.27478,-3.4874 0.002,-4.54547 0.42075,-1.60895 0.68755,-1.69319 1.63035,-0.51472 1.79662,2.2457 306.64919,215.83051 308.89679,216.41828 1.4639,0.3828 2.8041,-0.41709 4.8175,-2.87519 1.8051,-2.20388 3.1166,-3.05269 3.7169,-2.40555 0.5102,0.55 3.498,5.8375 6.6395,11.75 6.6291,12.47588 7.6058,11.62065 -9.9434,8.70626 z m 200,-2.90154 c -2.2,-1.04105 -3.55,-1.89588 -3,-1.89961 1.3639,-0.009 9.2551,3.68433 8,3.7445 -0.55,0.0264 -2.8,-0.80383 -5,-1.84489 z m 11.5,-1.32693 c 0,-0.79197 8.1295,-24.18174 8.554,-24.61087 0.2083,-0.2107 1.9941,1.03511 3.9682,2.76845 2.37,2.0809 4.0696,2.88283 5.0028,2.36057 0.7774,-0.43504 11.9646,-11.01834 24.8605,-23.51846 21.6684,-21.00345 26.2977,-24.90111 25.4378,-21.41763 -0.1778,0.72042 -10.8983,11.53358 -23.8233,24.02925 -12.925,12.49567 -23.6312,23.51021 -23.7916,24.47676 -0.1604,0.96656 0.8521,2.83184 2.25,4.14507 1.3979,1.31323 2.5415,2.87176 2.5414,3.46338 -10e-5,0.59163 -4.8376,2.59541 -10.75,4.45284 C 1441.4977,333.19751 1441,333.332 1441,332.72779 z m -24,-3.32464 c -10.4877,-4.09918 -14.0454,-5.69112 -13.6351,-6.10138 0.3707,-0.37075 20.7004,7.44615 21.5518,8.28679 0.9797,0.96741 -1.8457,0.18747 -7.9167,-2.18541 z m -21,-8.47942 c -2.631,-1.49773 -2.8793,-1.82882 -1,-1.33345 3.4748,0.91595 7.8275,3.33005 6,3.32777 -0.825,-10e-4 -3.075,-0.89848 -5,-1.99432 z m -10.8205,-4.07202 c -2.9263,-1.12424 -5.1223,-2.24228 -4.88,-2.48454 0.4159,-0.41586 10.7261,3.32634 11.6172,4.21655 0.8771,0.87632 -1.6169,0.23515 -6.7372,-1.73201 z M 1319,316.5846 c 1.375,-0.73443 3.625,-1.63187 5,-1.99432 1.8793,-0.49537 1.631,-0.16428 -1,1.33345 -1.925,1.09584 -4.175,1.99328 -5,1.99432 -0.8323,0.001 -0.3871,-0.59254 1,-1.33345 z m 8.0833,-2.99604 c 0.8663,-0.85541 21.1844,-8.65415 21.5623,-8.27628 0.2177,0.21768 -4.2882,2.26147 -10.0132,4.54175 -9.5833,3.81711 -12.6306,4.80248 -11.5491,3.73453 z M 1373,311.92373 c -2.631,-1.49773 -2.8793,-1.82882 -1,-1.33345 3.4748,0.91595 7.8275,3.33005 6,3.32777 -0.825,-10e-4 -3.075,-0.89848 -5,-1.99432 z m -11.5,-4.44559 c -2.75,-1.29547 -6.575,-2.3967 -8.5,-2.44718 -2.7941,-0.0733 -3.1597,-0.29027 -1.8127,-1.07595 1.2384,-0.72236 3.7656,-0.15912 9.5,2.11731 4.297,1.70582 8.0002,3.28738 8.2294,3.51458 1.1653,1.15539 -3.0042,-0.0301 -7.4167,-2.10876 z M 195.72988,288.48898 c -3.15143,-6.33106 -5.72988,-11.73106 -5.72988,-12 0,-0.26894 1.6875,-0.49587 3.75,-0.50429 7.27876,-0.0297 6.75,5.29583 6.75,-67.98469 0,-57.64342 -0.19137,-66.19392 -1.5,-67.02116 -0.89396,-0.56511 -22.1216,-0.9544 -52.5399,-0.96353 -56.104855,-0.0168 -57.247237,-0.1196 -68.601848,-6.17154 C 66.500634,127.79022 57.331517,114.957 54.887686,101.69385 50.638745,78.634015 68.187005,54.512476 92.433659,50.083791 96.45446,49.349386 132.07681,49.005598 202.93366,49.017364 c 112.88869,0.01875 112.22732,-0.0099 122.74251,5.318537 6.44985,3.268388 14.32138,10.426814 18.32342,16.663463 16.77677,26.14432 1.38032,61.177426 -29.82785,67.870386 -3.52394,0.75575 -22.23521,1.13532 -56.47096,1.14556 -30.5197,0.009 -51.80666,0.39832 -52.70078,0.96353 -1.30863,0.82724 -1.5,9.37774 -1.5,67.02116 0,73.28052 -0.52876,67.95497 6.75,67.98469 2.0625,0.008 3.75,0.23535 3.75,0.50429 C 214,277.50124 202.51666,300 202,300 c -0.29713,0 -3.11869,-5.17996 -6.27012,-11.51102 z M 911.5717,218.25 c 0.49777,-0.4125 1.24088,-1.2 1.65135,-1.75 0.42591,-0.57068 0.7529,-0.24868 0.76164,0.75 0.009,0.97279 -0.72489,1.75 -1.65136,1.75 -0.91666,0 -1.2594,-0.3375 -0.76163,-0.75 z M 1802,218.60699 c 0,-0.21616 0.675,-0.65203 1.5,-0.96862 0.825,-0.31658 1.5,-0.13972 1.5,0.39301 0,0.53274 -0.675,0.96862 -1.5,0.96862 -0.825,0 -1.5,-0.17686 -1.5,-0.39301 z M 560.01531,7.75 C 560.0068,6.7772082 560.7402,6 561.66667,6 c 0.91666,0 1.2594,0.3375 0.76163,0.75 -0.49777,0.4125 -1.24088,1.2 -1.65135,1.75 -0.42591,0.570676 -0.7529,0.2486831 -0.76164,-0.75 z M 912.21057,7.4619628 C 911.14523,6.2540646 911.18867,6 912.46057,6 913.30726,6 914,6.675 914,7.5 c 0,1.823667 -0.15025,1.8204732 -1.78943,-0.038037 z m 891.00003,0 C 1802.1452,6.2540646 1802.1887,6 1803.4606,6 1804.3073,6 1805,6.675 1805,7.5 c 0,1.823667 -0.1503,1.8204732 -1.7894,-0.038037 z M 1499.7333,6.8759123 c 0.6784,-0.6834184 1.4853,-0.9906713 1.7932,-0.6827842 0.3078,0.3078871 -0.2472,0.8670476 -1.2334,1.242579 -1.4252,0.5426846 -1.54,0.427821 -0.5598,-0.5597948 z"
       id="path3247"
       style="fill:#9c44c3" />
    <path
       d="m 89.26455,759.47133 c -12.134198,-3.29784 -22.37234,-10.94862 -28.791118,-21.51506 -3.467002,-5.70731 -5.789983,-12.88798 -3.764313,-11.63604 0.561723,0.34716 1.274854,2.19358 1.584735,4.10315 1.181961,7.28357 11.630188,18.86614 21.729627,24.08876 9.534382,4.93042 8.069669,4.87188 122.476519,4.89535 99.22856,0.0204 107.46365,-0.10628 113.38366,-1.74365 7.52015,-2.07994 15.42306,-5.90678 17.33758,-8.39541 0.74826,-0.97264 3.5558,-3.79343 6.23897,-6.26843 l 4.8785,-4.5 -2.06055,3.5 c -2.66639,4.52903 -13.98984,13.17719 -21.16253,16.16264 L 315.5,760.5 205,760.69712 c -92.8911,0.1657 -111.334303,-0.0296 -115.73545,-1.22579 z m 256.20977,-24.42167 c 0.83912,-1.62269 1.52568,-3.78269 1.52568,-4.8 0,-1.01731 0.5625,-2.41242 1.25,-3.10024 0.8363,-0.83669 1.2425,-4.55243 1.22735,-11.22726 -0.0125,-5.48717 0.29342,-9.17691 0.67972,-8.19942 1.18173,2.99026 0.89468,13.49399 -0.51316,18.77726 -1.33938,5.02633 -4.26394,11.5 -5.19527,11.5 -0.275,0 0.18656,-1.32765 1.02568,-2.95034 z M 54.414622,720.39659 c -1.019667,-5.43529 1.121784,-16.01111 4.728101,-23.35031 6.230217,-12.6791 19.172769,-22.38379 33.290936,-24.96249 C 96.186537,671.39832 116.87148,671 148.71504,671 c 42.03553,0 50.4357,-0.22925 50.88058,-1.38858 0.29306,-0.76372 -1.97106,-6.38122 -5.03139,-12.48334 C 191.5039,651.02596 189,645.80082 189,645.51666 c 0,-0.28416 1.6875,-0.52355 3.75,-0.53197 7.28623,-0.0298 6.75,5.57155 6.75,-70.50893 l 0,-68.59753 -10,-5.26846 C 179.04037,495.09916 83.201322,445.82512 33.75,420.53353 17.9375,412.44632 5,405.52569 5,405.15435 c 0,-0.37134 12.707148,-7.19548 28.238106,-15.16475 15.530958,-7.96928 39.043458,-20.02935 52.25,-26.80015 C 98.694648,356.41866 118.95,346.01427 130.5,340.06859 c 11.55,-5.94567 31.8,-16.33643 45,-23.09057 13.2,-6.75415 24.74283,-12.91657 25.65072,-13.69429 1.02589,-0.87878 1.88368,-1.03709 2.26615,-0.41824 0.33849,0.54768 13.99566,7.8373 30.34928,16.19916 16.35362,8.36185 36.48385,18.68996 44.73385,22.95135 8.25,4.26139 31.875,16.40291 52.5,26.98115 20.625,10.57824 44.41687,22.82829 52.87081,27.22233 13.94803,7.24965 15.58936,7.8722 17.73177,6.72562 1.86547,-0.99837 13.47507,-1.11563 55.3196,-0.55873 52.12457,0.69372 52.97534,0.67364 54.01823,-1.27503 0.58278,-1.08892 1.05959,-3.35944 1.05959,-5.0456 0,-1.68616 0.3375,-3.05848 0.75,-3.04961 0.4125,0.009 5.90129,2.66089 12.19732,5.89338 l 11.44731,5.87725 -12.22115,6.12628 c -13.10183,6.56774 -12.89066,6.57426 -13.38849,-0.41304 l -0.28499,-4 -20,-0.61455 c -11,-0.33801 -35.43043,-0.67551 -54.28984,-0.75 C 403.74598,405.00721 401.7116,405.10648 398,407 c -4.01321,2.04739 -6.90275,2.75621 -3.75,0.9199 4.37229,-2.54662 2.02049,-4.27959 -23.50208,-17.31796 C 356.86156,383.50801 340.1,374.91093 333.5,371.49731 319.49621,364.25435 275.9215,341.89964 251.5,329.42966 242.15,324.6554 227.65356,317.20563 219.2857,312.8746 210.91783,308.54357 203.45354,305 202.69838,305 c -1.32464,0 -12.86135,5.74237 -51.15538,25.46247 -9.92365,5.11033 -27.493,14.12518 -39.043,20.03299 -11.55,5.90781 -27.75,14.23268 -36,18.49971 -30.274079,15.65823 -59.11049,30.41956 -63.25,32.3776 -2.494087,1.17973 -4.25,2.6984 -4.25,3.67578 0,1.13611 4.529295,3.97499 14.25,8.93165 15.101442,7.70033 41.565568,21.26711 71.25,36.52615 9.9,5.08901 26.55,13.638 37,18.99776 47.56311,24.39489 62.24315,31.93904 65.48519,33.65318 4.25259,2.24845 6.60407,2.30682 10.51481,0.26101 1.65,-0.86316 15.375,-7.89642 30.5,-15.62947 15.125,-7.73304 33.8,-17.31619 41.5,-21.29588 7.7,-3.97969 24.8,-12.75159 38,-19.4931 21.87566,-11.17236 41.63119,-21.3457 63,-32.44259 8.80918,-4.57464 12.57185,-6.20156 11,-4.75625 -0.55,0.50572 -10.45,5.76791 -22,11.69373 -31.29897,16.05821 -55.98083,28.73019 -75,38.50594 -9.35,4.80585 -26,13.35351 -37,18.9948 -11,5.64129 -27.73738,14.26644 -37.19417,19.167 l -17.19417,8.91011 -0.60454,4.2137 c -0.3325,2.31754 -0.47013,32.91776 -0.30583,68.00048 0.33106,70.69463 -0.20822,65.66828 7.04871,65.69792 2.0625,0.008 3.75,0.24781 3.75,0.53197 0,0.28416 -2.5039,5.5093 -5.56423,11.61142 -3.06033,6.10212 -5.32445,11.71962 -5.03139,12.48334 0.44516,1.16007 9.06521,1.38858 52.38058,1.38858 33.21641,0 53.97126,0.39256 57.75717,1.09242 14.21467,2.62773 27.20579,12.09 33.42722,24.3472 1.78743,3.52151 3.04905,7.00071 2.80362,7.73156 -0.24544,0.73085 -1.02061,-0.47118 -1.7226,-2.67118 -4.13759,-12.96699 -17.285,-23.70623 -33.55037,-27.40507 -6.1581,-1.40039 -19.44807,-1.59203 -110.5,-1.59339 -105.990197,-0.002 -107.669075,0.0517 -119,3.77399 -5.965994,1.95989 -13.983959,7.79281 -19.004094,13.82511 -6.544572,7.8641 -9.206876,15.19535 -9.314431,25.64936 -0.04668,4.5375 -0.198722,8.25 -0.337864,8.25 -0.139142,0 -0.557187,-1.62154 -0.928989,-3.60341 z M 373.75,710.43962 C 367.8375,707.43808 363,704.54002 363,703.99949 363,703.21649 383.89467,692 385.35329,692 c 0.21263,0 0.61736,2.04723 0.89939,4.5494 0.28203,2.50217 0.82804,4.86467 1.21337,5.25 1.13268,1.13271 684.98185,1.361 687.95755,0.22966 l 2.5764,-0.97956 0,-98.02475 0,-98.02475 126.75,-0.0997 c 69.7125,-0.0548 127.8416,-0.40474 129.1759,-0.77758 1.3342,-0.37285 2.6028,-1.20894 2.8192,-1.85798 0.4652,-1.39575 1.8535,-0.79883 -41.2451,-17.73377 -18.7,-7.34787 -42.775,-16.81598 -53.5,-21.04024 -10.725,-4.22426 -24.675,-9.70854 -31,-12.1873 -6.325,-2.47876 -21.175,-8.32631 -33,-12.99456 -36.9248,-14.57708 -72.2796,-28.44065 -77.75,-30.48786 -2.8875,-1.0806 -5.241,-2.2699 -5.23,-2.64288 0.017,-0.59094 36.1099,-15.09469 41.48,-16.66875 4.6537,-1.36406 -7.0757,3.81023 -20.5,9.04331 -7.975,3.10883 -14.9084,6.03719 -15.4076,6.50747 -1.3691,1.28979 0.7754,3.31683 5.0943,4.81539 2.0973,0.7277 11.2383,4.24505 20.3133,7.81633 9.075,3.57128 23.925,9.40564 33,12.96524 9.075,3.5596 18.6702,7.36953 21.3227,8.46652 2.6525,1.09698 5.3225,1.82795 5.9332,1.62437 1.0653,-0.3551 -12.0519,-5.72712 -54.2559,-22.21989 -25.6703,-10.03164 -28.3882,-11.19281 -28.7519,-12.28371 -0.2975,-0.89259 9.2352,-4.87421 49.2519,-20.57165 26.1107,-10.2425 49.5881,-19.4908 71.5,-28.16558 10.175,-4.02821 22.775,-8.98145 28,-11.0072 5.225,-2.02575 17.825,-6.97898 28,-11.00716 10.175,-4.02819 27.275,-10.7653 38,-14.97135 10.725,-4.20605 22.9556,-9.0133 27.1791,-10.68278 l 7.6792,-3.03543 5.3208,1.99318 c 2.9265,1.09625 12.7459,4.92507 21.8209,8.50848 31.3189,12.36681 54.531,21.50328 64,25.19096 5.225,2.03486 20.075,7.88663 33,13.00395 12.925,5.11731 28.675,11.33061 35,13.80732 76.1038,29.80037 91.0954,35.90675 90.7436,36.96191 -0.3302,0.99086 -7.1091,3.84893 -36.7436,15.49165 -13.9256,5.47105 -45.403,17.8696 -75.5,29.73844 -6.05,2.38584 -18.65,7.34015 -28,11.00957 -9.35,3.66943 -26.675,10.48656 -38.5,15.14919 -11.825,4.66262 -25.1,9.86883 -29.5,11.56935 -4.4,1.70053 -15.1463,5.94506 -23.8806,9.43229 -8.7343,3.48724 -16.7066,6.34043 -17.7161,6.34043 -1.0095,0 -3.3132,-0.62478 -5.1194,-1.3884 -10.5383,-4.45549 -15.0668,-6.27691 -32.2839,-12.98511 -10.45,-4.07157 -28.215,-11.05318 -39.4777,-15.51467 -11.2628,-4.4615 -20.9153,-8.11182 -21.45,-8.11182 -2.3712,0 1.5863,2.08242 10.4277,5.48702 10.5809,4.07443 22.3916,8.71982 50.5,19.86264 26.7175,10.59146 35.2627,13.65034 38.1328,13.65034 1.3731,0 4.6049,-0.86683 7.1818,-1.92629 14.5511,-5.98236 28.4252,-11.16722 28.8216,-10.77085 0.2503,0.25032 -3.9529,2.15166 -9.3405,4.22521 -5.3877,2.07355 -13.5648,5.278 -18.1714,7.12101 l -8.3757,3.35092 -133.8092,0 c -84.3459,0 -134.7556,0.35981 -136.3694,0.97338 l -2.5601,0.97337 -0.255,97.77663 L 1080.5,704.5 734.33331,705 c -190.39168,0.275 -346.48195,0.81527 -346.86727,1.2006 -0.38532,0.38533 -0.93133,2.74783 -1.21336,5.25 -0.28203,2.50217 -0.79176,4.52622 -1.13273,4.49788 -0.34097,-0.0283 -5.45745,-2.50732 -11.36995,-5.50886 z M 1252,465.06418 c -0.825,-0.48125 -13.65,-5.65311 -28.5,-11.49303 -14.85,-5.83991 -28.4778,-11.28247 -30.2839,-12.09458 -1.8062,-0.81212 -3.8087,-1.47657 -4.45,-1.47657 -2.5626,0 1.1345,1.98318 10.2339,5.48971 13.9258,5.36639 41.8039,16.37222 47,18.55484 4.7804,2.00801 8.8922,2.70677 6,1.01963 z m 348.2645,117.40715 c -12.1341,-3.29784 -22.3723,-10.94862 -28.7911,-21.51506 -3.467,-5.70731 -5.79,-12.88798 -3.7643,-11.63604 0.5617,0.34716 1.2749,2.19358 1.5848,4.10315 1.1819,7.28357 11.6301,18.86614 21.7296,24.08876 9.5344,4.93042 8.0697,4.87188 122.4765,4.89535 99.2286,0.0204 107.4636,-0.10628 113.3837,-1.74365 7.5201,-2.07994 15.423,-5.90678 17.3375,-8.39541 0.7483,-0.97264 3.5558,-3.79343 6.239,-6.26843 l 4.8785,-4.5 -2.0605,3.5 c -2.6664,4.52903 -13.9899,13.17719 -21.1626,16.16264 L 1826.5,583.5 1716,583.69712 c -92.8911,0.1657 -111.3343,-0.0296 -115.7355,-1.22579 z m 256.2098,-24.42167 c 0.8391,-1.62269 1.5257,-3.78269 1.5257,-4.8 0,-1.01731 0.5625,-2.41242 1.25,-3.10024 0.8363,-0.83669 1.2425,-4.55243 1.2274,-11.22726 -0.013,-5.48717 0.2934,-9.17691 0.6797,-8.19942 1.1817,2.99026 0.8946,13.49399 -0.5132,18.77726 -1.3394,5.02633 -4.2639,11.5 -5.1953,11.5 -0.275,0 0.1866,-1.32765 1.0257,-2.95034 z m -291.0597,-14.65307 c -1.0196,-5.43529 1.1218,-16.01111 4.7281,-23.35031 6.2371,-12.69305 19.1721,-22.38353 33.3298,-24.96966 8.3656,-1.52812 211.7619,-1.51996 220.0319,0.009 14.2531,2.63482 27.2368,12.08377 33.465,24.35417 1.7874,3.52151 3.049,7.00071 2.8036,7.73156 -0.2455,0.73085 -1.0206,-0.47118 -1.7226,-2.67118 -4.1376,-12.96699 -17.285,-23.70623 -33.5504,-27.40507 -6.1581,-1.40039 -19.4481,-1.59203 -110.5,-1.59339 -105.9902,-0.002 -107.6691,0.0517 -119,3.77399 -5.966,1.95989 -13.984,7.79281 -19.0041,13.82511 -6.5446,7.8641 -9.2069,15.19535 -9.3144,25.64936 -0.047,4.5375 -0.1987,8.25 -0.3379,8.25 -0.1391,0 -0.5572,-1.62154 -0.929,-3.60341 z M 184,494.91443 C 174.375,489.94641 154.575,479.76928 140,472.29858 125.425,464.82789 108.1,455.91952 101.5,452.5022 94.9,449.08489 76.225,439.49566 60,431.1928 14.088764,407.69853 11.5,406.30371 11.5,405.06105 c 0,-0.64211 9.9,-6.23066 22,-12.41901 57.532311,-29.42397 78.78671,-40.32734 88,-45.14344 5.5,-2.87504 23.5,-12.10642 40,-20.51418 16.5,-8.40775 30.45,-15.61146 31,-16.00823 0.55,-0.39677 3.14736,-1.65779 5.77192,-2.80226 l 4.77192,-2.08086 12.22808,6.30543 c 6.72544,3.46798 23.02808,11.83032 36.22808,18.58298 13.2,6.75265 31.65,16.21395 41,21.02511 16.45866,8.469 23.82937,12.25695 76.75,39.44336 13.6125,6.99301 24.75,13.09734 24.75,13.56517 0,0.92814 -10.73234,6.71335 -44.5,23.98749 -28.39417,14.52529 -57.12227,29.2679 -76,39.00147 -42.99991,22.17127 -70.32754,35.9931 -71.11658,35.96952 C 201.89754,503.95908 193.625,499.88245 184,494.91443 z M 543,409 l 0,-93 85.42857,0 c 76.32901,0 85.59596,-0.16738 87,-1.57143 C 716.71646,313.14068 717,310.16987 717,297.96376 717,281.45839 716.81262,281 710.06574,281 708.37958,281 707,280.76501 707,280.4778 c 0,-0.28721 1.82053,-4.14306 4.04563,-8.56855 2.2251,-4.4255 3.80739,-8.80301 3.51622,-9.7278 -0.35805,-1.13719 0.44151,-2.23578 2.47016,-3.394 3.70708,-2.1165 5.82048,-1.46663 5.23254,1.609 -0.27198,1.42274 1.31426,5.78712 4.16987,11.47298 4.97557,9.90695 4.98575,9.85253 -1.93442,10.34558 l -4,0.28499 -0.27628,15.92474 c -0.20941,12.07013 0.0326,16.12079 1,16.73469 0.70195,0.44547 47.96378,0.81684 105.02628,0.82526 L 930,316 l 0,93 0,93 -193.5,0 -193.5,0 0,-93 z m 46.5,0 0,-91.5 -21.37314,-0.27025 c -14.92258,-0.18868 -21.78869,0.0746 -22.75,0.87245 C 544.22633,319.05705 544,334.07413 544,409.45578 c 0,49.61599 0.30839,90.51927 0.6853,90.89619 0.37692,0.37692 10.61442,0.56442 22.75,0.41667 L 589.5,500.5 l 0,-91.5 z m -43.5,0 0,-90 21.5,0 21.5,0 0,90 0,90 -21.5,0 -21.5,0 0,-90 z m 333.94849,90.09624 c 1.60814,-3.00483 1.40962,-178.22752 -0.2044,-180.42049 C 878.58453,317.10026 868.81828,317.00289 736,317.24271 L 593.5,317.5 593.24199,408 c -0.14191,49.775 -0.0435,91.0625 0.21861,91.75 0.37822,0.99192 29.89674,1.25 142.97283,1.25 139.07152,0 142.52069,-0.0457 143.51506,-1.90376 z M 594,409 l 0,-90 142.5,0 142.5,0 0,90 0,90 -142.5,0 -142.5,0 0,-90 z m 334.5,0 0,-91.5 -22.5,0 -22.5,0 -0.25801,90.5 c -0.14191,49.775 -0.0402,91.07114 0.22598,91.7692 0.3754,0.98444 5.48137,1.20879 22.75801,1 L 928.5,500.5 l 0,-91.5 z m -44.5,0 0,-90 21.5,0 21.5,0 0,90 0,90 -21.5,0 -21.5,0 0,-90 z m 510.5,81.06958 c 2.2,-1.10399 7.15,-3.20095 11,-4.65992 3.85,-1.45896 8.35,-3.2415 10,-3.96118 7.6201,-3.3237 16.6838,-6.59806 17.1031,-6.17873 0.2546,0.25467 -8.2144,3.87993 -18.82,8.05615 -21.0751,8.29875 -25.3872,9.80678 -19.2831,6.74368 z m 312.6169,-11.8363 -6.1323,-12.23328 3.5734,0 c 1.9654,0 4.4439,-0.46583 5.5077,-1.03518 1.8441,-0.98691 1.9343,-2.38708 1.9343,-30.02475 l 0,-28.98957 -2.5651,-0.97525 c -1.5324,-0.58262 -20.7561,-0.96676 -47.75,-0.95416 l -45.1849,0.0211 -6.9451,2.45048 c -3.8198,1.34776 -7.1162,2.27936 -7.3254,2.07021 -0.2091,-0.20914 0.5537,-0.67667 1.6951,-1.03895 2.3222,-0.73703 2.6825,-2.51681 0.8754,-4.32392 -1.468,-1.46805 -0.7564,-1.51413 2.7565,-0.1785 1.8356,0.69786 3.0802,0.69494 3.9287,-0.009 0.826,-0.6855 18.2861,-0.94391 52.1284,-0.7715 L 1714.5,402.5 l 0.2647,30.95009 c 0.1988,23.23212 0.5728,31.14575 1.5,31.73469 0.6794,0.43153 2.9228,0.79149 4.9853,0.79991 2.0625,0.008 3.7268,0.35281 3.6984,0.76531 -0.028,0.4125 -2.6723,5.91748 -5.8754,12.23328 l -5.8237,11.48329 -6.1324,-12.23329 z M 1434,474.74923 c 1.0579,-1.20479 44.0301,-18.05243 44.5977,-17.4849 0.2247,0.22474 -8.9303,4.06611 -20.3446,8.53638 -23.5117,9.20814 -24.9456,9.7372 -24.2531,8.94852 z m 49,-19.67296 c 1.925,-1.09584 4.175,-1.99328 5,-1.99432 1.8275,-0.002 -2.5252,2.41182 -6,3.32777 -1.8793,0.49537 -1.631,0.16428 1,-1.33345 z m 8,-2.87358 c 3.1043,-1.96258 53.1022,-21.43384 53.6446,-20.89144 0.3129,0.31292 -48.2595,19.70772 -53.1446,21.22044 -1.5244,0.47204 -1.6433,0.39381 -0.5,-0.329 z m 58.5,-23.12041 c 6.4366,-3.20951 37.5923,-15.32332 38.1013,-14.81435 0.2556,0.25567 -8.2126,3.88175 -18.8182,8.05797 -21.0045,8.27094 -25.4308,9.82183 -19.2831,6.75638 z m 43,-17.06488 c 2.2,-1.08072 4.675,-1.95914 5.5,-1.95203 1.6836,0.0145 -3.3143,2.34882 -7.0646,3.29957 -1.3395,0.33958 -0.6354,-0.26681 1.5646,-1.34754 z m 3.6795,-12.16569 c -2.9263,-1.12424 -5.1223,-2.24228 -4.88,-2.48454 0.4159,-0.41586 10.7261,3.32634 11.6172,4.21655 0.8771,0.87632 -1.6169,0.23515 -6.7372,-1.73201 z M 1577,392.39071 c -15.5495,-6.09795 -19.0891,-7.6349 -18.6332,-8.0908 0.3697,-0.36971 30.6847,11.4396 31.5499,12.29037 1.0788,1.06088 -2.3236,-0.0453 -12.9167,-4.19957 z m -437.8162,-4.90783 c 0.8917,-0.89167 21.0758,-8.55665 21.4766,-8.15581 0.2096,0.20955 -4.303,2.24668 -10.028,4.52696 -9.8689,3.93088 -12.6239,4.8041 -11.4486,3.62885 z m 406.0193,-7.66609 c -5.6634,-2.23093 -10.1071,-4.24615 -9.875,-4.47827 0.3957,-0.39566 20.6851,7.35793 21.5886,8.25004 1.0331,1.02021 -2.1548,-0.006 -11.7136,-3.77177 z M 1164,377.5846 c 1.375,-0.73443 3.625,-1.63187 5,-1.99432 1.8793,-0.49537 1.631,-0.16428 -1,1.33345 -1.925,1.09584 -4.175,1.99328 -5,1.99432 -0.8323,0.001 -0.3871,-0.59254 1,-1.33345 z m 8.0833,-2.99604 c 0.8514,-0.84064 21.1811,-8.65754 21.5518,-8.28679 0.4187,0.41868 -3.3891,2.09365 -13.8956,6.11235 -6.4696,2.47461 -8.5619,3.06885 -7.6562,2.17444 z M 1528,372.92373 c -2.631,-1.49773 -2.8793,-1.82882 -1,-1.33345 3.4748,0.91595 7.8275,3.33005 6,3.32777 -0.825,-10e-4 -3.075,-0.89848 -5,-1.99432 z m -15.7969,-6.10694 c -5.6634,-2.23093 -10.1071,-4.24615 -9.875,-4.47827 0.3957,-0.39566 20.6851,7.35793 21.5886,8.25004 1.0331,1.02021 -2.1548,-0.006 -11.7136,-3.77177 z M 1197,364.5846 c 1.375,-0.73443 3.625,-1.63187 5,-1.99432 1.8793,-0.49537 1.631,-0.16428 -1,1.33345 -1.925,1.09584 -4.175,1.99328 -5,1.99432 -0.8323,0.001 -0.3871,-0.59254 1,-1.33345 z m 8.0833,-2.99604 c 0.8514,-0.84064 21.1811,-8.65754 21.5518,-8.28679 0.4187,0.41868 -3.3891,2.09365 -13.8956,6.11235 -6.4696,2.47461 -8.5619,3.06885 -7.6562,2.17444 z M 1495,359.92373 c -2.631,-1.49773 -2.8793,-1.82882 -1,-1.33345 3.4748,0.91595 7.8275,3.33005 6,3.32777 -0.825,-10e-4 -3.075,-0.89848 -5,-1.99432 z m -12,-4.52058 c -10.4877,-4.09918 -14.0454,-5.69112 -13.6351,-6.10138 0.3707,-0.37075 20.7004,7.44615 21.5518,8.28679 0.9797,0.96741 -1.8457,0.18747 -7.9167,-2.18541 z m -253,-3.81855 c 1.375,-0.73443 3.625,-1.63187 5,-1.99432 1.8793,-0.49537 1.631,-0.16428 -1,1.33345 -1.925,1.09584 -4.175,1.99328 -5,1.99432 -0.8323,0.001 -0.3871,-0.59254 1,-1.33345 z m 8.0833,-2.99604 c 0.8514,-0.84064 21.1811,-8.65754 21.5518,-8.28679 0.3834,0.38337 -1.2404,1.10877 -13.6351,6.09113 -5.967,2.39859 -8.9639,3.22978 -7.9167,2.19566 z m 217.6209,-3.82392 c -5.3877,-2.20347 -9.6131,-4.18907 -9.3897,-4.41244 0.4179,-0.41793 20.5755,7.20449 21.5017,8.13068 1.32,1.31997 -3.1433,-0.0502 -12.112,-3.71824 z m -194.6095,-5.19271 c 0.8668,-0.86673 54.2029,-21.60766 54.5843,-21.22629 0.2171,0.21716 -6.7093,3.19029 -15.3921,6.60698 -8.6828,3.41669 -20.7755,8.20008 -26.8727,10.62977 -10.1834,4.05799 -13.4438,5.11385 -12.3195,3.98954 z M 1439,338 c -2.1451,-1.17441 -2.8319,-1.93239 -1.7742,-1.95808 0.9492,-0.0231 3.1992,0.8564 5,1.95434 4.178,2.54732 1.426,2.5505 -3.2258,0.004 z m -209.5,-1.04374 c -6.05,-1.00472 -11.1189,-1.8559 -11.2642,-1.89151 -0.1453,-0.0356 0.8802,-1.79405 2.2789,-3.90763 1.3987,-2.11358 2.2853,-4.47608 1.9701,-5.25 -0.4215,-1.0352 -191.2305,-135.46777 -300.22217,-211.51852 -4.12101,-2.8755 -5.53404,-3.40824 -6.62918,-2.49935 -1.11843,0.92821 -1.49026,0.64014 -1.89299,-1.4666 -0.27564,-1.44194 -0.27478,-3.4874 0.002,-4.54547 0.42075,-1.60895 0.68755,-1.69319 1.63035,-0.51472 1.79662,2.2457 306.64919,215.83051 308.89679,216.41828 1.4639,0.3828 2.8041,-0.41709 4.8175,-2.87519 1.8051,-2.20388 3.1166,-3.05269 3.7169,-2.40555 0.5102,0.55 3.498,5.8375 6.6395,11.75 6.6291,12.47588 7.6058,11.62065 -9.9434,8.70626 z m 200,-2.90154 c -2.2,-1.04105 -3.55,-1.89588 -3,-1.89961 1.3639,-0.009 9.2551,3.68433 8,3.7445 -0.55,0.0264 -2.8,-0.80383 -5,-1.84489 z m 11.5,-1.32693 c 0,-0.79197 8.1295,-24.18174 8.554,-24.61087 0.2083,-0.2107 1.9941,1.03511 3.9682,2.76845 2.37,2.0809 4.0696,2.88283 5.0028,2.36057 0.7774,-0.43504 11.9646,-11.01834 24.8605,-23.51846 21.6684,-21.00345 26.2977,-24.90111 25.4378,-21.41763 -0.1778,0.72042 -10.8983,11.53358 -23.8233,24.02925 -12.925,12.49567 -23.6312,23.51021 -23.7916,24.47676 -0.1604,0.96656 0.8521,2.83184 2.25,4.14507 1.3979,1.31323 2.5415,2.87176 2.5414,3.46338 -10e-5,0.59163 -4.8376,2.59541 -10.75,4.45284 C 1441.4977,333.19751 1441,333.332 1441,332.72779 z m -24,-3.32464 c -10.4877,-4.09918 -14.0454,-5.69112 -13.6351,-6.10138 0.3707,-0.37075 20.7004,7.44615 21.5518,8.28679 0.9797,0.96741 -1.8457,0.18747 -7.9167,-2.18541 z m -21,-8.47942 c -2.631,-1.49773 -2.8793,-1.82882 -1,-1.33345 3.4748,0.91595 7.8275,3.33005 6,3.32777 -0.825,-10e-4 -3.075,-0.89848 -5,-1.99432 z m -10.8205,-4.07202 c -2.9263,-1.12424 -5.1223,-2.24228 -4.88,-2.48454 0.4159,-0.41586 10.7261,3.32634 11.6172,4.21655 0.8771,0.87632 -1.6169,0.23515 -6.7372,-1.73201 z M 1319,316.5846 c 1.375,-0.73443 3.625,-1.63187 5,-1.99432 1.8793,-0.49537 1.631,-0.16428 -1,1.33345 -1.925,1.09584 -4.175,1.99328 -5,1.99432 -0.8323,0.001 -0.3871,-0.59254 1,-1.33345 z m 8.0833,-2.99604 c 0.8663,-0.85541 21.1844,-8.65415 21.5623,-8.27628 0.2177,0.21768 -4.2882,2.26147 -10.0132,4.54175 -9.5833,3.81711 -12.6306,4.80248 -11.5491,3.73453 z M 1373,311.92373 c -2.631,-1.49773 -2.8793,-1.82882 -1,-1.33345 3.4748,0.91595 7.8275,3.33005 6,3.32777 -0.825,-10e-4 -3.075,-0.89848 -5,-1.99432 z m -11.5,-4.44559 c -2.75,-1.29547 -6.575,-2.3967 -8.5,-2.44718 -2.7941,-0.0733 -3.1597,-0.29027 -1.8127,-1.07595 1.2384,-0.72236 3.7656,-0.15912 9.5,2.11731 4.297,1.70582 8.0002,3.28738 8.2294,3.51458 1.1653,1.15539 -3.0042,-0.0301 -7.4167,-2.10876 z M 195.72988,288.48898 c -3.15143,-6.33106 -5.72988,-11.73106 -5.72988,-12 0,-0.26894 1.6875,-0.49587 3.75,-0.50429 7.27876,-0.0297 6.75,5.29583 6.75,-67.98469 0,-57.64342 -0.19137,-66.19392 -1.5,-67.02116 -0.89396,-0.56511 -22.1216,-0.9544 -52.5399,-0.96353 -56.104855,-0.0168 -57.247237,-0.1196 -68.601848,-6.17154 C 66.500634,127.79022 57.331517,114.957 54.887686,101.69385 50.638745,78.634015 68.187005,54.512476 92.433659,50.083791 96.45446,49.349386 132.07681,49.005598 202.93366,49.017364 c 112.88869,0.01875 112.22732,-0.0099 122.74251,5.318537 6.44985,3.268388 14.32138,10.426814 18.32342,16.663463 16.77677,26.14432 1.38032,61.177426 -29.82785,67.870386 -3.52394,0.75575 -22.23521,1.13532 -56.47096,1.14556 -30.5197,0.009 -51.80666,0.39832 -52.70078,0.96353 -1.30863,0.82724 -1.5,9.37774 -1.5,67.02116 0,73.28052 -0.52876,67.95497 6.75,67.98469 2.0625,0.008 3.75,0.23535 3.75,0.50429 C 214,277.50124 202.51666,300 202,300 c -0.29713,0 -3.11869,-5.17996 -6.27012,-11.51102 z M 911.5717,218.25 c 0.49777,-0.4125 1.24088,-1.2 1.65135,-1.75 0.42591,-0.57068 0.7529,-0.24868 0.76164,0.75 0.009,0.97279 -0.72489,1.75 -1.65136,1.75 -0.91666,0 -1.2594,-0.3375 -0.76163,-0.75 z M 1802,218.60699 c 0,-0.21616 0.675,-0.65203 1.5,-0.96862 0.825,-0.31658 1.5,-0.13972 1.5,0.39301 0,0.53274 -0.675,0.96862 -1.5,0.96862 -0.825,0 -1.5,-0.17686 -1.5,-0.39301 z M 560.01531,7.75 C 560.0068,6.7772082 560.7402,6 561.66667,6 c 0.91666,0 1.2594,0.3375 0.76163,0.75 -0.49777,0.4125 -1.24088,1.2 -1.65135,1.75 -0.42591,0.570676 -0.7529,0.2486831 -0.76164,-0.75 z M 912.21057,7.4619628 C 911.14523,6.2540646 911.18867,6 912.46057,6 913.30726,6 914,6.675 914,7.5 c 0,1.823667 -0.15025,1.8204732 -1.78943,-0.038037 z m 891.00003,0 C 1802.1452,6.2540646 1802.1887,6 1803.4606,6 1804.3073,6 1805,6.675 1805,7.5 c 0,1.823667 -0.1503,1.8204732 -1.7894,-0.038037 z M 1499.7333,6.8759123 c 0.6784,-0.6834184 1.4853,-0.9906713 1.7932,-0.6827842 0.3078,0.3078871 -0.2472,0.8670476 -1.2334,1.242579 -1.4252,0.5426846 -1.54,0.427821 -0.5598,-0.5597948 z"
       id="path3245"
       style="fill:#778a90" />
    <path
       d="M 184,494.91443 C 174.375,489.94641 154.575,479.76928 140,472.29858 125.425,464.82789 108.1,455.91952 101.5,452.5022 94.9,449.08489 76.225,439.49566 60,431.1928 14.088764,407.69853 11.5,406.30371 11.5,405.06105 c 0,-0.64211 9.9,-6.23066 22,-12.41901 57.532311,-29.42397 78.78671,-40.32734 88,-45.14344 5.5,-2.87504 23.5,-12.10642 40,-20.51418 16.5,-8.40775 30.45,-15.61146 31,-16.00823 0.55,-0.39677 3.14736,-1.65779 5.77192,-2.80226 l 4.77192,-2.08086 12.22808,6.30543 c 6.72544,3.46798 23.02808,11.83032 36.22808,18.58298 13.2,6.75265 31.65,16.21395 41,21.02511 16.45866,8.469 23.82937,12.25695 76.75,39.44336 13.6125,6.99301 24.75,13.09734 24.75,13.56517 0,0.92814 -10.73234,6.71335 -44.5,23.98749 -28.39417,14.52529 -57.12227,29.2679 -76,39.00147 -42.99991,22.17127 -70.32754,35.9931 -71.11658,35.96952 C 201.89754,503.9591 193.625,499.88245 184,494.91443 z m 1163.5,7.63447 c -6.8228,-3.00927 -14.2156,-5.98368 -37.5,-15.0876 -34.3773,-13.44109 -51.5445,-20.18386 -82,-32.20711 -14.575,-5.75393 -29.2,-11.50217 -32.5,-12.77388 -3.3,-1.2717 -15.675,-6.13394 -27.5,-10.80498 -11.825,-4.67103 -29.15,-11.48104 -38.5,-15.13336 -23.0536,-9.00521 -25.8954,-10.22821 -26.2519,-11.29754 -0.2975,-0.89259 9.2352,-4.87421 49.2519,-20.57165 26.1107,-10.2425 49.5881,-19.4908 71.5,-28.16558 10.175,-4.02821 22.775,-8.98145 28,-11.0072 5.225,-2.02575 17.825,-6.97898 28,-11.00716 10.175,-4.02819 27.275,-10.7653 38,-14.97135 10.725,-4.20605 22.9556,-9.0133 27.1791,-10.68278 l 7.6792,-3.03543 5.3208,1.99471 c 2.9265,1.09708 14.0959,5.45679 24.8209,9.68823 43.0563,16.98745 51.8867,20.46331 61,24.01109 5.225,2.03408 20.075,7.88522 33,13.00254 12.925,5.11731 28.675,11.33061 35,13.80732 76.1038,29.80037 91.0954,35.90675 90.7436,36.96191 -0.3302,0.99086 -7.1091,3.84893 -36.7436,15.49165 -13.9256,5.47105 -45.403,17.8696 -75.5,29.73844 -6.05,2.38584 -18.65,7.34015 -28,11.00957 -9.35,3.66943 -26.675,10.48656 -38.5,15.14919 -11.825,4.66262 -25.1,9.86883 -29.5,11.56935 -4.4,1.70053 -15.1463,5.94506 -23.8806,9.43229 -8.7343,3.48724 -16.8343,6.31165 -18,6.27648 -1.1657,-0.0352 -3.4694,-0.65939 -5.1194,-1.38715 z M 546,409 l 0,-90 21.5,0 21.5,0 0,90 0,90 -21.5,0 -21.5,0 0,-90 z m 48,0 0,-90 142.5,0 142.5,0 0,90 0,90 -142.5,0 -142.5,0 0,-90 z m 290,0 0,-90 21.5,0 21.5,0 0,90 0,90 -21.5,0 -21.5,0 0,-90 z M 88,135.1176 C 80.151002,132.58473 76.95574,130.72701 70.870891,125.15877 67.272332,121.86573 64.180046,117.6727 61.5,112.45216 57.608435,104.87168 57.500374,104.38719 57.513795,94.580227 57.526787,85.086323 57.730367,84.09284 61.013795,77.5 67.02308,65.433873 76.516038,57.591885 89.931501,53.611524 94.77885,52.173318 106.88548,52 202.5,52 c 95.61452,0 107.72115,0.173318 112.5685,1.611524 13.3878,3.972153 22.89091,11.523325 28.78801,22.87495 C 347.40195,83.311257 347.5,83.796025 347.5,94.5 c 0,10.49801 -0.15203,11.29663 -3.33144,17.5 -5.77662,11.27082 -14.53259,18.82462 -26.65502,22.99534 -5.69598,1.95971 -8.273,2.00345 -114.92009,1.95088 C 100.93279,136.89611 93.125272,136.77152 88,135.1176 z"
       id="path3243"
       style="fill:#f0920b" />
    <path
       d="M 88,135.1176 C 80.151002,132.58473 76.95574,130.72701 70.870891,125.15877 67.272332,121.86573 64.180046,117.6727 61.5,112.45216 57.608435,104.87168 57.500374,104.38719 57.513795,94.580227 57.526787,85.086323 57.730367,84.09284 61.013795,77.5 67.02308,65.433873 76.516038,57.591885 89.931501,53.611524 94.77885,52.173318 106.88548,52 202.5,52 c 95.61452,0 107.72115,0.173318 112.5685,1.611524 13.3878,3.972153 22.89091,11.523325 28.78801,22.87495 C 347.40195,83.311257 347.5,83.796025 347.5,94.5 c 0,10.49801 -0.15203,11.29663 -3.33144,17.5 -5.77662,11.27082 -14.53259,18.82462 -26.65502,22.99534 -5.69598,1.95971 -8.273,2.00345 -114.92009,1.95088 C 100.93279,136.89611 93.125272,136.77152 88,135.1176 z"
       id="path3241"
       style="fill:#07b7b0" />
  </g>
  <text
     x="132.46295"
     y="247.38657"
     id="text3253"
     xml:space="preserve"
     style="font-size:18px;font-style:normal;font-weight:normal;line-height:125%;letter-spacing:0px;word-spacing:0px;fill:#778a90;fill-opacity:1;stroke:none;font-family:Sans"><tspan
       x="132.46295"
       y="247.38657"
       id="tspan3255">Class x.y.z</tspan></text>
  <text
     x="111.79213"
     y="408.37927"
     transform="scale(0.96698087,1.0341466)"
     id="text3257"
     xml:space="preserve"
     style="font-size:17.40565491px;font-style:normal;font-weight:normal;line-height:125%;letter-spacing:0px;word-spacing:0px;fill:#778a90;fill-opacity:1;stroke:none;font-family:Sans"><tspan
       x="111.79213"
       y="408.37927"
       id="tspan3259">Magic methods?</tspan></text>
  <text
     x="143.98148"
     y="595.82178"
     id="text3261"
     xml:space="preserve"
     style="font-size:18px;font-style:normal;font-weight:normal;line-height:125%;letter-spacing:0px;word-spacing:0px;fill:#8c80a3;fill-opacity:1;stroke:none;font-family:Sans"><tspan
       x="143.98148"
       y="595.82178"
       id="tspan3263">accept</tspan></text>
  <text
     x="182.13658"
     y="514.47223"
     id="text3265"
     xml:space="preserve"
     style="font-size:18px;font-style:normal;font-weight:normal;line-height:125%;letter-spacing:0px;word-spacing:0px;fill:#9699a2;fill-opacity:1;stroke:none;font-family:Sans"><tspan
       x="182.13658"
       y="514.47223"
       id="tspan3267">no</tspan></text>
  <text
     x="267.80554"
     y="404.32639"
     id="text3269"
     xml:space="preserve"
     style="font-size:18px;font-style:normal;font-weight:normal;line-height:125%;letter-spacing:0px;word-spacing:0px;fill:#8c81a3;fill-opacity:1;stroke:none;font-family:Sans"><tspan
       x="267.80554"
       y="404.32639"
       id="tspan3271">yes</tspan></text>
  <text
     x="338.35651"
     y="234.42825"
     id="text3273"
     xml:space="preserve"
     style="font-size:18px;font-style:normal;font-weight:normal;line-height:125%;letter-spacing:0px;word-spacing:0px;fill:#778a90;fill-opacity:1;stroke:none;font-family:Sans"><tspan
       x="338.35651"
       y="234.42825"
       id="tspan3275">Called methods</tspan><tspan
       x="338.35651"
       y="256.92825"
       id="tspan3277">  methodA</tspan><tspan
       x="338.35651"
       y="279.42825"
       id="tspan3279">  methodB</tspan></text>
  <text
     x="360.99905"
     y="398.60382"
     transform="scale(0.96522364,1.0360293)"
     id="text3281"
     xml:space="preserve"
     style="font-size:17.37402344px;font-style:normal;font-weight:normal;line-height:125%;letter-spacing:0px;word-spacing:0px;fill:#778a90;fill-opacity:1;stroke:none;font-family:Sans"><tspan
       x="360.99905"
       y="398.60382"
       id="tspan3283">Analyze</tspan><tspan
       x="360.99905"
       y="420.32135"
       id="tspan3285">Magic method</tspan></text>
  <text
     x="568.00696"
     y="506.55325"
     id="text3287"
     xml:space="preserve"
     style="font-size:18px;font-style:normal;font-weight:normal;line-height:125%;letter-spacing:0px;word-spacing:0px;fill:#778a90;fill-opacity:1;stroke:none;font-family:Sans"><tspan
       x="568.00696"
       y="506.55325"
       id="tspan3289">no</tspan></text>
  <text
     x="791.17822"
     y="401.44675"
     id="text3291"
     xml:space="preserve"
     style="font-size:18px;font-style:normal;font-weight:normal;line-height:125%;letter-spacing:0px;word-spacing:0px;fill:#778a90;fill-opacity:1;stroke:none;font-family:Sans"><tspan
       x="791.17822"
       y="401.44675"
       id="tspan3293">yes</tspan></text>
  <text
     x="803.41669"
     y="498.63425"
     id="text3295"
     xml:space="preserve"
     style="font-size:18px;font-style:normal;font-weight:normal;line-height:125%;letter-spacing:0px;word-spacing:0px;fill:#8f86a4;fill-opacity:1;stroke:none;font-family:Sans"><tspan
       x="803.41669"
       y="498.63425"
       id="tspan3297">reject</tspan></text>
  <text
     x="579.52545"
     y="422.32407"
     id="text3299"
     xml:space="preserve"
     style="font-size:18px;font-style:normal;font-weight:normal;line-height:125%;letter-spacing:0px;word-spacing:0px;fill:#778a90;fill-opacity:1;stroke:none;font-family:Sans"><tspan
       x="579.52545"
       y="422.32407"
       id="tspan3301">blacklisted methods?</tspan></text>
  <text
     x="755.18286"
     y="225.06944"
     id="text3303"
     xml:space="preserve"
     style="font-size:18px;font-style:normal;font-weight:normal;line-height:125%;letter-spacing:0px;word-spacing:0px;fill:#778a90;fill-opacity:1;stroke:none;font-family:Sans"><tspan
       x="755.18286"
       y="225.06944"
       id="tspan3305">Black List</tspan><tspan
       x="755.18286"
       y="247.56944"
       id="tspan3307">  method1</tspan><tspan
       x="755.18286"
       y="270.06946"
       id="tspan3309">  method2</tspan></text>
  <path
     d="m 649.3565,236.22801 a 3.5995371,3.9594908 0 1 1 -7.19908,0 3.5995371,3.9594908 0 1 1 7.19908,0 z"
     transform="translate(110.14583,6.4791667)"
     id="path3311"
     style="fill:#778a90;fill-opacity:1" />
  <path
     d="m 649.3565,236.22801 a 3.5995371,3.9594908 0 1 1 -7.19908,0 3.5995371,3.9594908 0 1 1 7.19908,0 z"
     transform="translate(110.14582,30.596061)"
     id="path3311-3"
     style="fill:#778a90;fill-opacity:1" />
  <path
     d="m 649.3565,236.22801 a 3.5995371,3.9594908 0 1 1 -7.19908,0 3.5995371,3.9594908 0 1 1 7.19908,0 z"
     transform="translate(-304.52085,16.197913)"
     id="path3311-6"
     style="fill:#778a90;fill-opacity:1" />
  <path
     d="m 649.3565,236.22801 a 3.5995371,3.9594908 0 1 1 -7.19908,0 3.5995371,3.9594908 0 1 1 7.19908,0 z"
     transform="translate(-305.24075,38.515043)"
     id="path3311-7"
     style="fill:#778a90;fill-opacity:1" />
</svg>
